<svg width="1265" height="1233" viewBox="0 0 1265 1233" fill="none" xmlns="http://www.w3.org/2000/svg">
<path d="M721.978 1196.4L838.299 1082.99C869.916 1052.16 871.477 1014.1 839.86 983.273C808.243 952.447 769.989 953.969 737.982 985.176L677.48 1044.17L193.071 571.868L253.573 512.878C285.19 482.051 286.752 443.993 255.134 413.166C223.517 382.339 185.264 383.862 153.256 415.069L36.9358 528.482C-12.2467 576.435 -12.2467 630.477 36.5455 678.049L568.575 1196.78C617.368 1244.35 672.795 1244.35 721.978 1196.4Z" fill="white"/>
<path d="M1227.07 703.928C1276.26 655.976 1276.26 601.933 1227.47 554.361L695.435 35.6318C646.643 -11.9405 591.215 -11.9405 542.032 36.0124L425.712 149.425C394.095 180.252 392.533 217.549 424.151 248.375C455.768 279.202 494.411 278.061 526.029 247.234L586.531 188.244L1070.94 660.543L1010.44 719.532C978.82 750.359 977.259 787.656 1008.88 818.483C1040.49 849.31 1079.14 848.168 1110.75 817.341L1227.07 703.928Z" fill="white"/>
</svg>
